<?xml version="1.0" encoding="utf-8"?>
<svg version="1.1" xmlns:xlink="http://www.w3.org/1999/xlink" width="26px" height="26px" xmlns="http://www.w3.org/2000/svg">
  <g transform="matrix(1 0 0 1 -56 -407 )">
    <path d="M 5.4970703125 17.43625  C 5.89485677083333 16.9270833333333  6.09375 16.315  6.09375 15.6  C 6.09375 14.885  5.89485677083333 14.2729166666667  5.4970703125 13.76375  C 5.09928385416667 13.2545833333333  4.62109375 13  4.0625 13  C 3.50390625 13  3.02571614583333 13.2545833333333  2.6279296875 13.76375  C 2.23014322916667 14.2729166666667  2.03125 14.885  2.03125 15.6  C 2.03125 16.315  2.23014322916667 16.9270833333333  2.6279296875 17.43625  C 3.02571614583333 17.9454166666667  3.50390625 18.2  4.0625 18.2  C 4.62109375 18.2  5.09928385416667 17.9454166666667  5.4970703125 17.43625  Z M 7.6806640625 4.59875  L 6.55078125 10.4  L 19.44921875 10.4  L 18.3193359375 4.59875  C 18.3024088541667 4.51208333333333  18.2431640625 4.41729166666666  18.1416015625 4.314375  C 18.0400390625 4.21145833333333  17.951171875 4.16  17.875 4.16  L 8.125 4.16  C 8.048828125 4.16  7.9599609375 4.21145833333333  7.8583984375 4.314375  C 7.7568359375 4.41729166666666  7.69759114583333 4.51208333333333  7.6806640625 4.59875  Z M 23.3720703125 17.43625  C 23.7698567708333 16.9270833333333  23.96875 16.315  23.96875 15.6  C 23.96875 14.885  23.7698567708333 14.2729166666667  23.3720703125 13.76375  C 22.9742838541667 13.2545833333333  22.49609375 13  21.9375 13  C 21.37890625 13  20.9007161458333 13.2545833333333  20.5029296875 13.76375  C 20.1051432291667 14.2729166666667  19.90625 14.885  19.90625 15.6  C 19.90625 16.315  20.1051432291667 16.9270833333333  20.5029296875 17.43625  C 20.9007161458333 17.9454166666667  21.37890625 18.2  21.9375 18.2  C 22.49609375 18.2  22.9742838541667 17.9454166666667  23.3720703125 17.43625  Z M 25.16845703125 11.464375  C 25.7228190104167 12.1739583333333  26 13.0325  26 14.04  L 26 20.28  C 26 20.4316666666667  25.9619140625 20.55625  25.8857421875 20.65375  C 25.8095703125 20.75125  25.7122395833333 20.8  25.59375 20.8  L 24.375 20.8  L 24.375 22.88  C 24.375 23.7466666666667  24.1380208333333 24.4833333333333  23.6640625 25.09  C 23.1901041666667 25.6966666666667  22.6145833333333 26  21.9375 26  C 21.2604166666667 26  20.6848958333333 25.6966666666667  20.2109375 25.09  C 19.7369791666667 24.4833333333333  19.5 23.7466666666667  19.5 22.88  L 19.5 20.8  L 6.5 20.8  L 6.5 22.88  C 6.5 23.7466666666667  6.26302083333333 24.4833333333333  5.7890625 25.09  C 5.31510416666667 25.6966666666667  4.73958333333333 26  4.0625 26  C 3.38541666666667 26  2.80989583333333 25.6966666666667  2.3359375 25.09  C 1.86197916666667 24.4833333333333  1.625 23.7466666666667  1.625 22.88  L 1.625 20.8  L 0.40625 20.8  C 0.287760416666667 20.8  0.1904296875 20.75125  0.1142578125 20.65375  C 0.0380859375 20.55625  0 20.4316666666667  0 20.28  L 0 14.04  C 0 13.0325  0.277180989583333 12.1739583333333  0.83154296875 11.464375  C 1.38590494791667 10.7547916666667  2.056640625 10.4  2.84375 10.4  L 3.19921875 10.4  L 4.5322265625 3.59125  C 4.72688802083333 2.57291666666666  5.1669921875 1.71979166666666  5.8525390625 1.031875  C 6.5380859375 0.343958333333332  7.29557291666667 0  8.125 0  L 17.875 0  C 18.7044270833333 0  19.4619140625 0.343958333333332  20.1474609375 1.031875  C 20.8330078125 1.71979166666666  21.2731119791667 2.57291666666666  21.4677734375 3.59125  L 22.80078125 10.4  L 23.15625 10.4  C 23.943359375 10.4  24.6140950520833 10.7547916666667  25.16845703125 11.464375  Z " fill-rule="nonzero" fill="#999999" stroke="none" transform="matrix(1 0 0 1 56 407 )" />
  </g>
</svg>