<?xml version="1.0" encoding="utf-8"?>
<svg version="1.1" xmlns:xlink="http://www.w3.org/1999/xlink" width="13px" height="26px" xmlns="http://www.w3.org/2000/svg">
  <g transform="matrix(1 0 0 1 -217 -407 )">
    <path d="M 12.8190578158458 15.8292410714286  C 12.9396859386153 16.2548363095238  13 16.7094494047619  13 17.1930803571429  C 13 18.6729910714286  12.5383654532477 19.9473586309524  11.615096359743 21.0161830357143  C 10.6918272662384 22.0850074404762  9.49250535331906 22.7451636904762  8.01713062098501 22.9966517857143  L 8.01713062098501 25.5357142857143  C 8.01713062098501 25.671130952381  7.97537473233405 25.7823660714286  7.89186295503212 25.8694196428571  C 7.80835117773019 25.9564732142857  7.70164168451106 26  7.57173447537473 26  L 5.69271948608137 26  C 5.57209136331192 26  5.46770164168451 25.9540550595238  5.37955032119914 25.8621651785714  C 5.29139900071378 25.770275297619  5.24732334047109 25.6614583333333  5.24732334047109 25.5357142857143  L 5.24732334047109 22.9966517857143  C 4.63490364025696 22.9095982142857  4.04336188436831 22.7596726190476  3.47269807280514 22.546875  C 2.90203426124197 22.3340773809524  2.43112062812277 22.1188616071429  2.05995717344754 21.9012276785714  C 1.68879371877231 21.68359375  1.34546752319772 21.4514508928571  1.02997858672377 21.2047991071429  C 0.714489650249822 20.9581473214286  0.498750892219843 20.7767857142857  0.382762312633833 20.6607142857143  C 0.266773733047823 20.5446428571429  0.185581727337616 20.4575892857143  0.139186295503212 20.3995535714286  C -0.0185581727337615 20.1964285714286  -0.0278372591006424 19.9981398809524  0.11134903640257 19.8046875  L 1.54496788008565 17.8459821428571  C 1.60992148465382 17.749255952381  1.71663097787295 17.6912202380952  1.86509635974304 17.671875  C 2.00428265524625 17.6525297619048  2.11563169164882 17.696056547619  2.19914346895075 17.8024553571429  L 2.22698072805139 17.8314732142857  C 3.27551748750892 18.7890625  4.40292648108494 19.3936011904762  5.60920770877944 19.6450892857143  C 5.95253390435403 19.7224702380952  6.29586009992862 19.7611607142857  6.63918629550321 19.7611607142857  C 7.39079229122056 19.7611607142857  8.05192719486081 19.5531994047619  8.62259100642398 19.1372767857143  C 9.19325481798715 18.7213541666667  9.47858672376874 18.1313244047619  9.47858672376874 17.3671875  C 9.47858672376874 17.0963541666667  9.40899357601713 16.8400297619048  9.26980728051392 16.5982142857143  C 9.13062098501071 16.3563988095238  8.97519628836545 16.1532738095238  8.80353319057816 15.9888392857143  C 8.63187009279086 15.8244047619048  8.3604568165596 15.6430431547619  7.98929336188437 15.4447544642857  C 7.61812990720914 15.2464657738095  7.31192005710207 15.0917038690476  7.07066381156317 14.98046875  C 6.82940756602427 14.8692336309524  6.45824411134904 14.7120535714286  5.95717344753747 14.5089285714286  C 5.59528907922912 14.3541666666667  5.30995717344754 14.2332589285714  5.10117773019272 14.1462053571429  C 4.8923982869379 14.0591517857143  4.60706638115632 13.9309895833333  4.24518201284797 13.76171875  C 3.88329764453961 13.5924479166667  3.59332619557459 13.4425223214286  3.37526766595289 13.3119419642857  C 3.15720913633119 13.1813616071429  2.89507494646681 13.0096726190476  2.58886509635974 12.796875  C 2.28265524625268 12.5840773809524  2.03443968593862 12.3785342261905  1.84421841541756 12.1802455357143  C 1.6539971448965 11.9819568452381  1.45217701641685 11.7449776785714  1.23875802997859 11.4693080357143  C 1.02533904354033 11.1936383928571  0.860635260528194 10.9131324404762  0.744646680942184 10.6277901785714  C 0.628658101356174 10.3424479166667  0.531227694503926 10.0208333333333  0.452355460385439 9.66294642857143  C 0.373483226266952 9.30505952380952  0.334047109207709 8.92782738095238  0.334047109207709 8.53125  C 0.334047109207709 7.19642857142857  0.788722341184868 6.02604166666666  1.69807280513919 5.02008928571428  C 2.60742326909351 4.0141369047619  3.79050678087081 3.36607142857143  5.24732334047109 3.07589285714286  L 5.24732334047109 0.464285714285716  C 5.24732334047109 0.338541666666665  5.29139900071378 0.229724702380952  5.37955032119914 0.137834821428572  C 5.46770164168451 0.0459449404761916  5.57209136331192 0  5.69271948608137 0  L 7.57173447537473 0  C 7.70164168451106 0  7.80835117773019 0.0435267857142845  7.89186295503212 0.130580357142856  C 7.97537473233405 0.217633928571428  8.01713062098501 0.328869047619045  8.01713062098501 0.464285714285716  L 8.01713062098501 3.01785714285714  C 8.54603854389722 3.07589285714286  9.05870806566738 3.18712797619047  9.5551391862955 3.3515625  C 10.0515703069236 3.51599702380952  10.4552105638829 3.67801339285714  10.7660599571734 3.83761160714286  C 11.076909350464 3.99720982142857  11.3715203426124 4.17857142857143  11.6498929336188 4.38169642857143  C 11.9282655246253 4.58482142857143  12.1092077087794 4.7250744047619  12.1927194860814 4.80245535714286  C 12.2762312633833 4.87983630952381  12.3458244111349 4.94754464285714  12.4014989293362 5.00558035714286  C 12.5592433975732 5.1796875  12.5824411134904 5.36346726190476  12.4710920770878 5.55691964285714  L 11.3436830835118 7.67522321428572  C 11.2694503925767 7.8203125  11.1627408993576 7.89769345238095  11.0235546038544 7.90736607142857  C 10.8936473947181 7.93638392857143  10.7683797287652 7.90252976190476  10.6477516059957 7.80580357142857  C 10.6199143468951 7.77678571428572  10.5526409707352 7.71875  10.4459314775161 7.63169642857143  C 10.3392219842969 7.54464285714286  10.1582798001428 7.4164806547619  9.90310492505353 7.24720982142857  C 9.64793004996431 7.07793898809524  9.37651677373305 6.92317708333333  9.08886509635974 6.78292410714286  C 8.80121341898644 6.64267113095238  8.45556745182013 6.51692708333333  8.05192719486081 6.40569196428572  C 7.6482869379015 6.29445684523809  7.25160599571734 6.23883928571428  6.86188436830835 6.23883928571428  C 5.98037116345468 6.23883928571428  5.26124197002141 6.44680059523809  4.70449678800857 6.86272321428572  C 4.14775160599572 7.27864583333333  3.86937901498929 7.81547619047619  3.86937901498929 8.47321428571428  C 3.86937901498929 8.72470238095238  3.90881513204854 8.95684523809524  3.98768736616702 9.16964285714286  C 4.06655960028551 9.38244047619047  4.203426124197 9.58314732142857  4.3982869379015 9.77176339285714  C 4.593147751606 9.96037946428572  4.77640970735189 10.1199776785714  4.94807280513919 10.2505580357143  C 5.11973590292648 10.3811383928571  5.37955032119914 10.5310639880952  5.72751605995717 10.7003348214286  C 6.0754817987152 10.8696056547619  6.35617416131335 11.0001860119048  6.56959314775161 11.0920758928571  C 6.78301213418986 11.1839657738095  7.10778015703069 11.3169642857143  7.54389721627409 11.4910714285714  C 8.03568879371877 11.6845238095238  8.41149179157745 11.8368675595238  8.67130620985011 11.9481026785714  C 8.93112062812277 12.059337797619  9.28372591006424 12.2286086309524  9.72912205567452 12.4559151785714  C 10.1745182012848 12.6832217261905  10.5248037116345 12.8887648809524  10.7799785867238 13.0725446428571  C 11.035153461813 13.2563244047619  11.3228051391863 13.4981398809524  11.6429336188437 13.7979910714286  C 11.9630620985011 14.0978422619048  12.2089578872234 14.4049479166667  12.3806209850107 14.7193080357143  C 12.552284082798 15.0336681547619  12.6984296930764 15.4036458333333  12.8190578158458 15.8292410714286  Z " fill-rule="nonzero" fill="#999999" stroke="none" transform="matrix(1 0 0 1 217 407 )" />
  </g>
</svg>