<?xml version="1.0" encoding="utf-8"?>
<svg version="1.1" xmlns:xlink="http://www.w3.org/1999/xlink" width="22px" height="26px" xmlns="http://www.w3.org/2000/svg">
  <g transform="matrix(1 0 0 1 -134 -407 )">
    <path d="M 5.8515625 18.7092633928571  C 5.95052083333333 18.8011532738095  6 18.9099702380952  6 19.0357142857143  L 6 19.9642857142857  C 6 20.0900297619048  5.95052083333333 20.1988467261905  5.8515625 20.2907366071429  C 5.75260416666667 20.3826264880952  5.63541666666667 20.4285714285714  5.5 20.4285714285714  L 4.5 20.4285714285714  C 4.36458333333333 20.4285714285714  4.24739583333333 20.3826264880952  4.1484375 20.2907366071429  C 4.04947916666667 20.1988467261905  4 20.0900297619048  4 19.9642857142857  L 4 19.0357142857143  C 4 18.9099702380952  4.04947916666667 18.8011532738095  4.1484375 18.7092633928571  C 4.24739583333333 18.6173735119048  4.36458333333333 18.5714285714286  4.5 18.5714285714286  L 5.5 18.5714285714286  C 5.63541666666667 18.5714285714286  5.75260416666667 18.6173735119048  5.8515625 18.7092633928571  Z M 5.8515625 14.9949776785714  C 5.95052083333333 15.0868675595238  6 15.1956845238095  6 15.3214285714286  L 6 16.25  C 6 16.375744047619  5.95052083333333 16.4845610119048  5.8515625 16.5764508928571  C 5.75260416666667 16.6683407738095  5.63541666666667 16.7142857142857  5.5 16.7142857142857  L 4.5 16.7142857142857  C 4.36458333333333 16.7142857142857  4.24739583333333 16.6683407738095  4.1484375 16.5764508928571  C 4.04947916666667 16.4845610119048  4 16.375744047619  4 16.25  L 4 15.3214285714286  C 4 15.1956845238095  4.04947916666667 15.0868675595238  4.1484375 14.9949776785714  C 4.24739583333333 14.903087797619  4.36458333333333 14.8571428571429  4.5 14.8571428571429  L 5.5 14.8571428571429  C 5.63541666666667 14.8571428571429  5.75260416666667 14.903087797619  5.8515625 14.9949776785714  Z M 9.8515625 14.9949776785714  C 9.95052083333333 15.0868675595238  10 15.1956845238095  10 15.3214285714286  L 10 16.25  C 10 16.375744047619  9.95052083333333 16.4845610119048  9.8515625 16.5764508928571  C 9.75260416666667 16.6683407738095  9.63541666666667 16.7142857142857  9.5 16.7142857142857  L 8.5 16.7142857142857  C 8.36458333333333 16.7142857142857  8.24739583333333 16.6683407738095  8.1484375 16.5764508928571  C 8.04947916666667 16.4845610119048  8 16.375744047619  8 16.25  L 8 15.3214285714286  C 8 15.1956845238095  8.04947916666667 15.0868675595238  8.1484375 14.9949776785714  C 8.24739583333333 14.903087797619  8.36458333333333 14.8571428571429  8.5 14.8571428571429  L 9.5 14.8571428571429  C 9.63541666666667 14.8571428571429  9.75260416666667 14.903087797619  9.8515625 14.9949776785714  Z M 5.8515625 11.2806919642857  C 5.95052083333333 11.3725818452381  6 11.4813988095238  6 11.6071428571429  L 6 12.5357142857143  C 6 12.6614583333333  5.95052083333333 12.770275297619  5.8515625 12.8621651785714  C 5.75260416666667 12.9540550595238  5.63541666666667 13  5.5 13  L 4.5 13  C 4.36458333333333 13  4.24739583333333 12.9540550595238  4.1484375 12.8621651785714  C 4.04947916666667 12.770275297619  4 12.6614583333333  4 12.5357142857143  L 4 11.6071428571429  C 4 11.4813988095238  4.04947916666667 11.3725818452381  4.1484375 11.2806919642857  C 4.24739583333333 11.1888020833333  4.36458333333333 11.1428571428571  4.5 11.1428571428571  L 5.5 11.1428571428571  C 5.63541666666667 11.1428571428571  5.75260416666667 11.1888020833333  5.8515625 11.2806919642857  Z M 17.8515625 18.7092633928571  C 17.9505208333333 18.8011532738095  18 18.9099702380952  18 19.0357142857143  L 18 19.9642857142857  C 18 20.0900297619048  17.9505208333333 20.1988467261905  17.8515625 20.2907366071429  C 17.7526041666667 20.3826264880952  17.6354166666667 20.4285714285714  17.5 20.4285714285714  L 16.5 20.4285714285714  C 16.3645833333333 20.4285714285714  16.2473958333333 20.3826264880952  16.1484375 20.2907366071429  C 16.0494791666667 20.1988467261905  16 20.0900297619048  16 19.9642857142857  L 16 19.0357142857143  C 16 18.9099702380952  16.0494791666667 18.8011532738095  16.1484375 18.7092633928571  C 16.2473958333333 18.6173735119048  16.3645833333333 18.5714285714286  16.5 18.5714285714286  L 17.5 18.5714285714286  C 17.6354166666667 18.5714285714286  17.7526041666667 18.6173735119048  17.8515625 18.7092633928571  Z M 13.8515625 14.9949776785714  C 13.9505208333333 15.0868675595238  14 15.1956845238095  14 15.3214285714286  L 14 16.25  C 14 16.375744047619  13.9505208333333 16.4845610119048  13.8515625 16.5764508928571  C 13.7526041666667 16.6683407738095  13.6354166666667 16.7142857142857  13.5 16.7142857142857  L 12.5 16.7142857142857  C 12.3645833333333 16.7142857142857  12.2473958333333 16.6683407738095  12.1484375 16.5764508928571  C 12.0494791666667 16.4845610119048  12 16.375744047619  12 16.25  L 12 15.3214285714286  C 12 15.1956845238095  12.0494791666667 15.0868675595238  12.1484375 14.9949776785714  C 12.2473958333333 14.903087797619  12.3645833333333 14.8571428571429  12.5 14.8571428571429  L 13.5 14.8571428571429  C 13.6354166666667 14.8571428571429  13.7526041666667 14.903087797619  13.8515625 14.9949776785714  Z M 9.8515625 11.2806919642857  C 9.95052083333333 11.3725818452381  10 11.4813988095238  10 11.6071428571429  L 10 12.5357142857143  C 10 12.6614583333333  9.95052083333333 12.770275297619  9.8515625 12.8621651785714  C 9.75260416666667 12.9540550595238  9.63541666666667 13  9.5 13  L 8.5 13  C 8.36458333333333 13  8.24739583333333 12.9540550595238  8.1484375 12.8621651785714  C 8.04947916666667 12.770275297619  8 12.6614583333333  8 12.5357142857143  L 8 11.6071428571429  C 8 11.4813988095238  8.04947916666667 11.3725818452381  8.1484375 11.2806919642857  C 8.24739583333333 11.1888020833333  8.36458333333333 11.1428571428571  8.5 11.1428571428571  L 9.5 11.1428571428571  C 9.63541666666667 11.1428571428571  9.75260416666667 11.1888020833333  9.8515625 11.2806919642857  Z M 5.8515625 7.56640625  C 5.95052083333333 7.65829613095238  6 7.76711309523809  6 7.89285714285714  L 6 8.82142857142857  C 6 8.94717261904762  5.95052083333333 9.05598958333333  5.8515625 9.14787946428572  C 5.75260416666667 9.23976934523809  5.63541666666667 9.28571428571428  5.5 9.28571428571428  L 4.5 9.28571428571428  C 4.36458333333333 9.28571428571428  4.24739583333333 9.23976934523809  4.1484375 9.14787946428572  C 4.04947916666667 9.05598958333333  4 8.94717261904762  4 8.82142857142857  L 4 7.89285714285714  C 4 7.76711309523809  4.04947916666667 7.65829613095238  4.1484375 7.56640625  C 4.24739583333333 7.47451636904762  4.36458333333333 7.42857142857143  4.5 7.42857142857143  L 5.5 7.42857142857143  C 5.63541666666667 7.42857142857143  5.75260416666667 7.47451636904762  5.8515625 7.56640625  Z M 17.8515625 14.9949776785714  C 17.9505208333333 15.0868675595238  18 15.1956845238095  18 15.3214285714286  L 18 16.25  C 18 16.375744047619  17.9505208333333 16.4845610119048  17.8515625 16.5764508928571  C 17.7526041666667 16.6683407738095  17.6354166666667 16.7142857142857  17.5 16.7142857142857  L 16.5 16.7142857142857  C 16.3645833333333 16.7142857142857  16.2473958333333 16.6683407738095  16.1484375 16.5764508928571  C 16.0494791666667 16.4845610119048  16 16.375744047619  16 16.25  L 16 15.3214285714286  C 16 15.1956845238095  16.0494791666667 15.0868675595238  16.1484375 14.9949776785714  C 16.2473958333333 14.903087797619  16.3645833333333 14.8571428571429  16.5 14.8571428571429  L 17.5 14.8571428571429  C 17.6354166666667 14.8571428571429  17.7526041666667 14.903087797619  17.8515625 14.9949776785714  Z M 13.8515625 11.2806919642857  C 13.9505208333333 11.3725818452381  14 11.4813988095238  14 11.6071428571429  L 14 12.5357142857143  C 14 12.6614583333333  13.9505208333333 12.770275297619  13.8515625 12.8621651785714  C 13.7526041666667 12.9540550595238  13.6354166666667 13  13.5 13  L 12.5 13  C 12.3645833333333 13  12.2473958333333 12.9540550595238  12.1484375 12.8621651785714  C 12.0494791666667 12.770275297619  12 12.6614583333333  12 12.5357142857143  L 12 11.6071428571429  C 12 11.4813988095238  12.0494791666667 11.3725818452381  12.1484375 11.2806919642857  C 12.2473958333333 11.1888020833333  12.3645833333333 11.1428571428571  12.5 11.1428571428571  L 13.5 11.1428571428571  C 13.6354166666667 11.1428571428571  13.7526041666667 11.1888020833333  13.8515625 11.2806919642857  Z M 9.8515625 7.56640625  C 9.95052083333333 7.65829613095238  10 7.76711309523809  10 7.89285714285714  L 10 8.82142857142857  C 10 8.94717261904762  9.95052083333333 9.05598958333333  9.8515625 9.14787946428572  C 9.75260416666667 9.23976934523809  9.63541666666667 9.28571428571428  9.5 9.28571428571428  L 8.5 9.28571428571428  C 8.36458333333333 9.28571428571428  8.24739583333333 9.23976934523809  8.1484375 9.14787946428572  C 8.04947916666667 9.05598958333333  8 8.94717261904762  8 8.82142857142857  L 8 7.89285714285714  C 8 7.76711309523809  8.04947916666667 7.65829613095238  8.1484375 7.56640625  C 8.24739583333333 7.47451636904762  8.36458333333333 7.42857142857143  8.5 7.42857142857143  L 9.5 7.42857142857143  C 9.63541666666667 7.42857142857143  9.75260416666667 7.47451636904762  9.8515625 7.56640625  Z M 5.8515625 3.85212053571428  C 5.95052083333333 3.94401041666666  6 4.05282738095238  6 4.17857142857143  L 6 5.10714285714286  C 6 5.2328869047619  5.95052083333333 5.34170386904762  5.8515625 5.43359375  C 5.75260416666667 5.52548363095238  5.63541666666667 5.57142857142857  5.5 5.57142857142857  L 4.5 5.57142857142857  C 4.36458333333333 5.57142857142857  4.24739583333333 5.52548363095238  4.1484375 5.43359375  C 4.04947916666667 5.34170386904762  4 5.2328869047619  4 5.10714285714286  L 4 4.17857142857143  C 4 4.05282738095238  4.04947916666667 3.94401041666666  4.1484375 3.85212053571428  C 4.24739583333333 3.7602306547619  4.36458333333333 3.71428571428572  4.5 3.71428571428572  L 5.5 3.71428571428572  C 5.63541666666667 3.71428571428572  5.75260416666667 3.7602306547619  5.8515625 3.85212053571428  Z M 17.8515625 11.2806919642857  C 17.9505208333333 11.3725818452381  18 11.4813988095238  18 11.6071428571429  L 18 12.5357142857143  C 18 12.6614583333333  17.9505208333333 12.770275297619  17.8515625 12.8621651785714  C 17.7526041666667 12.9540550595238  17.6354166666667 13  17.5 13  L 16.5 13  C 16.3645833333333 13  16.2473958333333 12.9540550595238  16.1484375 12.8621651785714  C 16.0494791666667 12.770275297619  16 12.6614583333333  16 12.5357142857143  L 16 11.6071428571429  C 16 11.4813988095238  16.0494791666667 11.3725818452381  16.1484375 11.2806919642857  C 16.2473958333333 11.1888020833333  16.3645833333333 11.1428571428571  16.5 11.1428571428571  L 17.5 11.1428571428571  C 17.6354166666667 11.1428571428571  17.7526041666667 11.1888020833333  17.8515625 11.2806919642857  Z M 13.8515625 7.56640625  C 13.9505208333333 7.65829613095238  14 7.76711309523809  14 7.89285714285714  L 14 8.82142857142857  C 14 8.94717261904762  13.9505208333333 9.05598958333333  13.8515625 9.14787946428572  C 13.7526041666667 9.23976934523809  13.6354166666667 9.28571428571428  13.5 9.28571428571428  L 12.5 9.28571428571428  C 12.3645833333333 9.28571428571428  12.2473958333333 9.23976934523809  12.1484375 9.14787946428572  C 12.0494791666667 9.05598958333333  12 8.94717261904762  12 8.82142857142857  L 12 7.89285714285714  C 12 7.76711309523809  12.0494791666667 7.65829613095238  12.1484375 7.56640625  C 12.2473958333333 7.47451636904762  12.3645833333333 7.42857142857143  12.5 7.42857142857143  L 13.5 7.42857142857143  C 13.6354166666667 7.42857142857143  13.7526041666667 7.47451636904762  13.8515625 7.56640625  Z M 9.8515625 3.85212053571428  C 9.95052083333333 3.94401041666666  10 4.05282738095238  10 4.17857142857143  L 10 5.10714285714286  C 10 5.2328869047619  9.95052083333333 5.34170386904762  9.8515625 5.43359375  C 9.75260416666667 5.52548363095238  9.63541666666667 5.57142857142857  9.5 5.57142857142857  L 8.5 5.57142857142857  C 8.36458333333333 5.57142857142857  8.24739583333333 5.52548363095238  8.1484375 5.43359375  C 8.04947916666667 5.34170386904762  8 5.2328869047619  8 5.10714285714286  L 8 4.17857142857143  C 8 4.05282738095238  8.04947916666667 3.94401041666666  8.1484375 3.85212053571428  C 8.24739583333333 3.7602306547619  8.36458333333333 3.71428571428572  8.5 3.71428571428572  L 9.5 3.71428571428572  C 9.63541666666667 3.71428571428572  9.75260416666667 3.7602306547619  9.8515625 3.85212053571428  Z M 17.8515625 7.56640625  C 17.9505208333333 7.65829613095238  18 7.76711309523809  18 7.89285714285714  L 18 8.82142857142857  C 18 8.94717261904762  17.9505208333333 9.05598958333333  17.8515625 9.14787946428572  C 17.7526041666667 9.23976934523809  17.6354166666667 9.28571428571428  17.5 9.28571428571428  L 16.5 9.28571428571428  C 16.3645833333333 9.28571428571428  16.2473958333333 9.23976934523809  16.1484375 9.14787946428572  C 16.0494791666667 9.05598958333333  16 8.94717261904762  16 8.82142857142857  L 16 7.89285714285714  C 16 7.76711309523809  16.0494791666667 7.65829613095238  16.1484375 7.56640625  C 16.2473958333333 7.47451636904762  16.3645833333333 7.42857142857143  16.5 7.42857142857143  L 17.5 7.42857142857143  C 17.6354166666667 7.42857142857143  17.7526041666667 7.47451636904762  17.8515625 7.56640625  Z M 13.8515625 3.85212053571428  C 13.9505208333333 3.94401041666666  14 4.05282738095238  14 4.17857142857143  L 14 5.10714285714286  C 14 5.2328869047619  13.9505208333333 5.34170386904762  13.8515625 5.43359375  C 13.7526041666667 5.52548363095238  13.6354166666667 5.57142857142857  13.5 5.57142857142857  L 12.5 5.57142857142857  C 12.3645833333333 5.57142857142857  12.2473958333333 5.52548363095238  12.1484375 5.43359375  C 12.0494791666667 5.34170386904762  12 5.2328869047619  12 5.10714285714286  L 12 4.17857142857143  C 12 4.05282738095238  12.0494791666667 3.94401041666666  12.1484375 3.85212053571428  C 12.2473958333333 3.7602306547619  12.3645833333333 3.71428571428572  12.5 3.71428571428572  L 13.5 3.71428571428572  C 13.6354166666667 3.71428571428572  13.7526041666667 3.7602306547619  13.8515625 3.85212053571428  Z M 17.8515625 3.85212053571428  C 17.9505208333333 3.94401041666666  18 4.05282738095238  18 4.17857142857143  L 18 5.10714285714286  C 18 5.2328869047619  17.9505208333333 5.34170386904762  17.8515625 5.43359375  C 17.7526041666667 5.52548363095238  17.6354166666667 5.57142857142857  17.5 5.57142857142857  L 16.5 5.57142857142857  C 16.3645833333333 5.57142857142857  16.2473958333333 5.52548363095238  16.1484375 5.43359375  C 16.0494791666667 5.34170386904762  16 5.2328869047619  16 5.10714285714286  L 16 4.17857142857143  C 16 4.05282738095238  16.0494791666667 3.94401041666666  16.1484375 3.85212053571428  C 16.2473958333333 3.7602306547619  16.3645833333333 3.71428571428572  16.5 3.71428571428572  L 17.5 3.71428571428572  C 17.6354166666667 3.71428571428572  17.7526041666667 3.7602306547619  17.8515625 3.85212053571428  Z M 14 20.8928571428571  L 14 24.1428571428571  L 20 24.1428571428571  L 20 2  L 2 2  L 2 24.1428571428571  L 8 24.1428571428571  L 8 20.8928571428571  C 8 20.7671130952381  8.04947916666667 20.6582961309524  8.1484375 20.56640625  C 8.24739583333333 20.4745163690476  8.36458333333333 20.4285714285714  8.5 20.4285714285714  L 13.5 20.4285714285714  C 13.6354166666667 20.4285714285714  13.7526041666667 20.4745163690476  13.8515625 20.56640625  C 13.9505208333333 20.6582961309524  14 20.7671130952381  14 20.8928571428571  Z M 21.703125 0.275669642857144  C 21.9010416666667 0.459449404761901  22 0.677083333333332  22 0.928571428571428  L 22 25.0714285714286  C 22 25.3229166666667  21.9010416666667 25.5405505952381  21.703125 25.7243303571429  C 21.5052083333333 25.9081101190476  21.2708333333333 26  21 26  L 1 26  C 0.729166666666667 26  0.494791666666667 25.9081101190476  0.296875 25.7243303571429  C 0.0989583333333333 25.5405505952381  0 25.3229166666667  0 25.0714285714286  L 0 0.928571428571428  C 0 0.677083333333332  0.0989583333333333 0.459449404761901  0.296875 0.275669642857144  C 0.494791666666667 0.0918898809523832  0.729166666666667 0  1 0  L 21 0  C 21.2708333333333 0  21.5052083333333 0.0918898809523832  21.703125 0.275669642857144  Z " fill-rule="nonzero" fill="#999999" stroke="none" transform="matrix(1 0 0 1 134 407 )" />
  </g>
</svg>