<?xml version="1.0" encoding="utf-8"?>
<svg version="1.1" xmlns:xlink="http://www.w3.org/1999/xlink" width="391px" height="209px" xmlns="http://www.w3.org/2000/svg">
  <g transform="matrix(1 0 0 1 0 -143 )">
    <path d="M 0.5 326.820689655172  C 0.5 326.820689655172  0.5 148  0.5 148  C 0.5 145.514718625761  2.51471862576143 143.5  5 143.5  C 5 143.5  386 143.5  386 143.5  C 388.485281374239 143.5  390.5 145.514718625761  390.5 148  C 390.5 148  390.5 326.820689655172  390.5 326.820689655172  C 390.5 329.305971029411  388.485281374239 331.320689655172  386 331.320689655172  C 386 331.320689655172  221.575036722819 331.320689655172  221.575036722819 331.320689655172  C 221.575036722819 331.320689655172  198.410046047152 351.345873101857  198.410046047152 351.345873101857  C 198.410046047152 351.345873101857  174.086805837702 331.320689655172  174.086805837702 331.320689655172  C 174.086805837702 331.320689655172  5 331.320689655172  5 331.320689655172  C 2.51471862576143 331.320689655172  0.5 329.305971029411  0.5 326.820689655172  Z " fill-rule="nonzero" fill="#ffffff" stroke="none" />
    <path d="M 0 326.820689655172  C 0 326.820689655172  0 148  0 148  C 0 145.238576250846  2.23857625084603 143  5 143  C 5 143  386 143  386 143  C 388.761423749154 143  391 145.238576250846  391 148  C 391 148  391 326.820689655172  391 326.820689655172  C 391 329.582113404326  388.761423749154 331.820689655172  386 331.820689655172  C 386 331.820689655172  221.761194029851 331.820689655172  221.761194029851 331.820689655172  C 221.761194029851 331.820689655172  198.417910447761 352  198.417910447761 352  C 198.417910447761 352  173.907462686567 331.820689655172  173.907462686567 331.820689655172  C 173.907462686567 331.820689655172  5 331.820689655172  5 331.820689655172  C 2.23857625084603 331.820689655172  0 329.582113404326  0 326.820689655172  Z M 1 326.820689655172  C 1 329.029828654496  2.79086100067683 330.820689655172  5 330.820689655172  C 5 330.820689655172  174.266148988836 330.820689655172  174.266148988836 330.820689655172  C 174.266148988836 330.820689655172  198.402181646543 350.691746203713  198.402181646543 350.691746203713  C 198.402181646543 350.691746203713  221.388879415786 330.820689655172  221.388879415786 330.820689655172  C 221.388879415786 330.820689655172  386 330.820689655172  386 330.820689655172  C 388.209138999323 330.820689655172  390 329.029828654496  390 326.820689655172  C 390 326.820689655172  390 148  390 148  C 390 145.790861000677  388.209138999323 144  386 144  C 386 144  5 144  5 144  C 2.79086100067683 144  1 145.790861000677  1 148  C 1 148  1 326.820689655172  1 326.820689655172  Z " fill-rule="nonzero" fill="#e4e4e4" stroke="none" />
  </g>
</svg>