<?xml version="1.0" encoding="utf-8"?>
<svg version="1.1" xmlns:xlink="http://www.w3.org/1999/xlink" width="198px" height="45px" xmlns="http://www.w3.org/2000/svg">
  <g transform="matrix(1 0 0 1 1 -44 )">
    <path d="M 179.24091356185 44.5  C 179.24091356185 44.5  182.741235901209 44.8977639021998  182.741235901209 44.8977639021998  C 182.741235901209 44.8977639021998  196.459769340637 66.5  196.459769340637 66.5  C 196.459769340637 66.5  182.741235901209 88.1022360978002  182.741235901209 88.1022360978002  C 182.741235901209 88.1022360978002  179.24091356185 88.5  179.24091356185 88.5  C 179.24091356185 88.5  -0.50000000000003 88.5  -0.50000000000003 88.5  C -0.50000000000003 88.5  -0.5 44.5  -0.5 44.5  C -0.5 44.5  179.24091356185 44.5  179.24091356185 44.5  Z " fill-rule="nonzero" fill="#f9f9f9" stroke="none" />
    <path d="M 179.24091356185 44.5  C 179.24091356185 44.5  182.741235901209 44.8977639021998  182.741235901209 44.8977639021998  C 182.741235901209 44.8977639021998  196.459769340637 66.5  196.459769340637 66.5  C 196.459769340637 66.5  182.741235901209 88.1022360978002  182.741235901209 88.1022360978002  C 182.741235901209 88.1022360978002  179.24091356185 88.5  179.24091356185 88.5  C 179.24091356185 88.5  -0.50000000000003 88.5  -0.50000000000003 88.5  C -0.50000000000003 88.5  -0.5 44.5  -0.5 44.5  C -0.5 44.5  179.24091356185 44.5  179.24091356185 44.5  Z " stroke-width="1" stroke="#f2f2f2" fill="none" />
  </g>
</svg>