<?xml version="1.0" encoding="utf-8"?>
<svg version="1.1" xmlns:xlink="http://www.w3.org/1999/xlink" width="12px" height="12px" viewBox="215 1103  12 12" xmlns="http://www.w3.org/2000/svg">
  <path d="M 221 1103  C 224.36 1103  227 1105.64  227 1109  C 227 1112.36  224.36 1115  221 1115  C 217.64 1115  215 1112.36  215 1109  C 215 1105.64  217.64 1103  221 1103  Z " fill-rule="nonzero" fill="#ffffff" stroke="none" />
  <path d="M 221 1103.5  C 224.08 1103.5  226.5 1105.92  226.5 1109  C 226.5 1112.08  224.08 1114.5  221 1114.5  C 217.92 1114.5  215.5 1112.08  215.5 1109  C 215.5 1105.92  217.92 1103.5  221 1103.5  Z " stroke-width="1" stroke="#797979" fill="none" />
  <path d="M 221 1112  C 219.32 1112  218 1110.68  218 1109  C 218 1107.32  219.32 1106  221 1106  C 222.68 1106  224 1107.32  224 1109  C 224 1110.68  222.68 1112  221 1112  " fill-rule="nonzero" fill="#797979" stroke="none" />
</svg>