<?xml version="1.0" encoding="utf-8"?>
<svg version="1.1" xmlns:xlink="http://www.w3.org/1999/xlink" width="12px" height="12px" viewBox="115 1103  12 12" xmlns="http://www.w3.org/2000/svg">
  <path d="M 121 1103  C 124.36 1103  127 1105.64  127 1109  C 127 1112.36  124.36 1115  121 1115  C 117.64 1115  115 1112.36  115 1109  C 115 1105.64  117.64 1103  121 1103  Z " fill-rule="nonzero" fill="#ffffff" stroke="none" />
  <path d="M 121 1103.5  C 124.08 1103.5  126.5 1105.92  126.5 1109  C 126.5 1112.08  124.08 1114.5  121 1114.5  C 117.92 1114.5  115.5 1112.08  115.5 1109  C 115.5 1105.92  117.92 1103.5  121 1103.5  Z " stroke-width="1" stroke="#797979" fill="none" />
  <path d="M 121 1112  C 119.32 1112  118 1110.68  118 1109  C 118 1107.32  119.32 1106  121 1106  C 122.68 1106  124 1107.32  124 1109  C 124 1110.68  122.68 1112  121 1112  " fill-rule="nonzero" fill="#797979" stroke="none" />
</svg>