<?xml version="1.0" encoding="utf-8"?>
<svg version="1.1" xmlns:xlink="http://www.w3.org/1999/xlink" width="12px" height="12px" viewBox="38 1103  12 12" xmlns="http://www.w3.org/2000/svg">
  <path d="M 44 1103  C 47.36 1103  50 1105.64  50 1109  C 50 1112.36  47.36 1115  44 1115  C 40.64 1115  38 1112.36  38 1109  C 38 1105.64  40.64 1103  44 1103  Z " fill-rule="nonzero" fill="#f0f0f0" stroke="none" />
  <path d="M 44 1103.5  C 47.08 1103.5  49.5 1105.92  49.5 1109  C 49.5 1112.08  47.08 1114.5  44 1114.5  C 40.92 1114.5  38.5 1112.08  38.5 1109  C 38.5 1105.92  40.92 1103.5  44 1103.5  Z " stroke-width="1" stroke="#797979" fill="none" />
  <path d="M 44 1112  C 42.32 1112  41 1110.68  41 1109  C 41 1107.32  42.32 1106  44 1106  C 45.68 1106  47 1107.32  47 1109  C 47 1110.68  45.68 1112  44 1112  " fill-rule="nonzero" fill="#797979" stroke="none" />
</svg>