<?xml version="1.0" encoding="utf-8"?>
<svg version="1.1" xmlns:xlink="http://www.w3.org/1999/xlink" width="20px" height="20px" xmlns="http://www.w3.org/2000/svg">
  <g transform="matrix(1 0 0 1 -316 -138 )">
    <path d="M 20 10  C 20 4.47631578125  15.52368421875 0  10 0  C 4.47631578125001 0  0 4.47631578125  0 10  C 0 15.52368421875  4.47631578125001 20  10 20  C 15.52368421875 20  20 15.52368421875  20 10  Z M 18.9473684179688 10  C 18.9473684179688 14.9342105273438  14.9342105273437 18.9473684179688  10 18.9473684179688  C 5.06578947265626 18.9473684179688  1.05263158203124 14.9342105273438  1.05263158203124 10  C 1.05263158203124 5.06578947265625  5.06578947265626 1.05263158203124  10 1.05263158203124  C 14.9342105273437 1.05263158203124  18.9473684179688 5.06578947265625  18.9473684179688 10  Z M 14.0552631640625 13.313157890625  L 10.7447368359375 10  L 14.0552631640625 6.68684210937499  C 14.263157890625 6.48157894531251  14.263157890625 6.15000000000001  14.0552631640625 5.9447368359375  C 13.85 5.736842109375  13.5184210546875 5.736842109375  13.313157890625 5.9447368359375  L 10 9.2552631640625  L 6.68684210937499 5.9447368359375  C 6.48157894531249 5.736842109375  6.15000000000001 5.736842109375  5.9447368359375 5.9447368359375  C 5.73684210937498 6.15000000000001  5.73684210937498 6.48157894531251  5.9447368359375 6.68684210937499  L 9.2552631640625 10  L 5.9447368359375 13.313157890625  C 5.73684210937498 13.5184210546875  5.73684210937498 13.85  5.9447368359375 14.0552631640625  C 6.04736841796873 14.1578947460938  6.18157894531249 14.2105263085937  6.31578947265626 14.2105263085937  C 6.44999999999999 14.2105263085937  6.58421052734376 14.1578947460938  6.68684210937499 14.0552631640625  L 10 10.7447368359375  L 13.313157890625 14.0552631640625  C 13.4157894726562 14.1578947460938  13.55 14.2105263085937  13.6842105273437 14.2105263085937  C 13.8184210546875 14.2105263085937  13.9526315820312 14.1578947460938  14.0552631640625 14.0552631640625  C 14.263157890625 13.85  14.263157890625 13.5184210546875  14.0552631640625 13.313157890625  Z " fill-rule="nonzero" fill="#e64340" stroke="none" transform="matrix(1 0 0 1 316 138 )" />
  </g>
</svg>