<?xml version="1.0" encoding="utf-8"?>
<svg version="1.1" xmlns:xlink="http://www.w3.org/1999/xlink" width="12px" height="12px" viewBox="115 1124  12 12" xmlns="http://www.w3.org/2000/svg">
  <path d="M 121 1124  C 124.36 1124  127 1126.64  127 1130  C 127 1133.36  124.36 1136  121 1136  C 117.64 1136  115 1133.36  115 1130  C 115 1126.64  117.64 1124  121 1124  Z " fill-rule="nonzero" fill="#f0f0f0" stroke="none" />
  <path d="M 121 1124.5  C 124.08 1124.5  126.5 1126.92  126.5 1130  C 126.5 1133.08  124.08 1135.5  121 1135.5  C 117.92 1135.5  115.5 1133.08  115.5 1130  C 115.5 1126.92  117.92 1124.5  121 1124.5  Z " stroke-width="1" stroke="#797979" fill="none" />
  <path d="M 121 1133  C 119.32 1133  118 1131.68  118 1130  C 118 1128.32  119.32 1127  121 1127  C 122.68 1127  124 1128.32  124 1130  C 124 1131.68  122.68 1133  121 1133  " fill-rule="nonzero" fill="#797979" stroke="none" />
</svg>