<?xml version="1.0" encoding="utf-8"?>
<svg version="1.1" xmlns:xlink="http://www.w3.org/1999/xlink" width="12px" height="12px" viewBox="215 1124  12 12" xmlns="http://www.w3.org/2000/svg">
  <path d="M 221 1124  C 224.36 1124  227 1126.64  227 1130  C 227 1133.36  224.36 1136  221 1136  C 217.64 1136  215 1133.36  215 1130  C 215 1126.64  217.64 1124  221 1124  Z " fill-rule="nonzero" fill="#f0f0f0" stroke="none" />
  <path d="M 221 1124.5  C 224.08 1124.5  226.5 1126.92  226.5 1130  C 226.5 1133.08  224.08 1135.5  221 1135.5  C 217.92 1135.5  215.5 1133.08  215.5 1130  C 215.5 1126.92  217.92 1124.5  221 1124.5  Z " stroke-width="1" stroke="#797979" fill="none" />
  <path d="M 221 1133  C 219.32 1133  218 1131.68  218 1130  C 218 1128.32  219.32 1127  221 1127  C 222.68 1127  224 1128.32  224 1130  C 224 1131.68  222.68 1133  221 1133  " fill-rule="nonzero" fill="#797979" stroke="none" />
</svg>