<?xml version="1.0" standalone="no"?><!DOCTYPE svg PUBLIC "-//W3C//DTD SVG 1.1//EN" "http://www.w3.org/Graphics/SVG/1.1/DTD/svg11.dtd"><svg t="1530159826084" class="icon" style="" viewBox="0 0 1026 1024" version="1.1" xmlns="http://www.w3.org/2000/svg" p-id="6397" xmlns:xlink="http://www.w3.org/1999/xlink" width="200.390625" height="200"><defs><style type="text/css"></style></defs><path d="M367.219283 396.717225c0-17.457966-14.447972-31.905938-31.905938-31.905938l-46.955908 0c-17.457966 0-31.905938 14.447972-31.905938 31.905938 0 17.457966 14.447972 31.905938 31.905938 31.905938l46.955908 0C352.771311 428.623163 367.219283 414.175191 367.219283 396.717225zM736.244562 428.623163c17.457966 0 31.905938-14.447972 31.905938-31.905938 0-17.457966-14.447972-31.905938-31.905938-31.905938L455.71311 364.811287c-17.457966 0-31.905938 14.447972-31.905938 31.905938 0 17.457966 14.447972 31.905938 31.905938 31.905938L736.244562 428.623163zM511.699001 13.243974c-282.939447 0-511.699001 200.465608-511.699001 447.285126 0 141.469724 75.249853 267.287478 192.037625 349.159318l0 167.957672c0 25.885949 28.293945 41.537919 49.965902 28.293945L385.279248 919.252205c13.243974-7.825985 18.661964-24.079953 13.243974-39.129924 0 0 0-0.601999 0-0.601999-6.621987-18.661964-28.895944-25.885949-45.751911-15.651969l-69.831864 42.139918c-12.641975 7.223986-28.293945-1.805996-28.293945-16.253968l1.805996-114.981775c-115.583774-69.229865-191.435626-184.21164-191.435626-314.243386 0-211.903586 200.465608-383.473251 447.887125-383.473251 247.421517 0 447.887125 171.569665 447.887125 383.473251 0 211.903586-200.465608 383.473251-447.887125 383.473251-6.621987 0-13.243974 0-19.865961-0.601999-22.875955-1.203998-37.323927 22.875955-27.691946 43.343915 0 0.601999 0.601999 1.203998 0.601999 1.805996 4.815991 10.23398 14.447972 18.059965 25.885949 18.661964 6.621987 0.601999 13.845973 0.601999 21.069959 0.601999 282.939447 0 512.300999-200.465608 512.300999-447.285126C1024 213.709583 794.638448 13.243974 511.699001 13.243974zM352.169312 620.660788l320.263374 0c17.457966 0 31.905938-14.447972 31.905938-31.905938 0-17.457966-14.447972-31.905938-31.905938-31.905938L352.169312 556.848912c-17.457966 0-31.905938 14.447972-31.905938 31.905938C320.263374 606.212816 334.109347 620.660788 352.169312 620.660788z" p-id="6398" fill="#d2d2d2"></path></svg>