<?xml version="1.0" encoding="utf-8"?>
<svg version="1.1" xmlns:xlink="http://www.w3.org/1999/xlink" width="12px" height="12px" viewBox="38 55  12 12" xmlns="http://www.w3.org/2000/svg">
  <path d="M 44 55  C 47.36 55  50 57.64  50 61  C 50 64.36  47.36 67  44 67  C 40.64 67  38 64.36  38 61  C 38 57.64  40.64 55  44 55  Z " fill-rule="nonzero" fill="#f0f0f0" stroke="none" />
  <path d="M 44 55.5  C 47.08 55.5  49.5 57.92  49.5 61  C 49.5 64.08  47.08 66.5  44 66.5  C 40.92 66.5  38.5 64.08  38.5 61  C 38.5 57.92  40.92 55.5  44 55.5  Z " stroke-width="1" stroke="#797979" fill="none" />
  <path d="M 44 64  C 42.32 64  41 62.68  41 61  C 41 59.32  42.32 58  44 58  C 45.68 58  47 59.32  47 61  C 47 62.68  45.68 64  44 64  " fill-rule="nonzero" fill="#797979" stroke="none" />
</svg>