<?xml version="1.0" encoding="utf-8"?>
<svg version="1.1" xmlns:xlink="http://www.w3.org/1999/xlink" width="12px" height="12px" viewBox="215 1183  12 12" xmlns="http://www.w3.org/2000/svg">
  <path d="M 221 1183  C 224.36 1183  227 1185.64  227 1189  C 227 1192.36  224.36 1195  221 1195  C 217.64 1195  215 1192.36  215 1189  C 215 1185.64  217.64 1183  221 1183  Z " fill-rule="nonzero" fill="#f0f0f0" stroke="none" />
  <path d="M 221 1183.5  C 224.08 1183.5  226.5 1185.92  226.5 1189  C 226.5 1192.08  224.08 1194.5  221 1194.5  C 217.92 1194.5  215.5 1192.08  215.5 1189  C 215.5 1185.92  217.92 1183.5  221 1183.5  Z " stroke-width="1" stroke="#797979" fill="none" />
  <path d="M 221 1192  C 219.32 1192  218 1190.68  218 1189  C 218 1187.32  219.32 1186  221 1186  C 222.68 1186  224 1187.32  224 1189  C 224 1190.68  222.68 1192  221 1192  " fill-rule="nonzero" fill="#797979" stroke="none" />
</svg>