<?xml version="1.0" encoding="utf-8"?>
<svg version="1.1" xmlns:xlink="http://www.w3.org/1999/xlink" width="12px" height="12px" viewBox="115 1183  12 12" xmlns="http://www.w3.org/2000/svg">
  <path d="M 121 1183  C 124.36 1183  127 1185.64  127 1189  C 127 1192.36  124.36 1195  121 1195  C 117.64 1195  115 1192.36  115 1189  C 115 1185.64  117.64 1183  121 1183  Z " fill-rule="nonzero" fill="#ffffff" stroke="none" />
  <path d="M 121 1183.5  C 124.08 1183.5  126.5 1185.92  126.5 1189  C 126.5 1192.08  124.08 1194.5  121 1194.5  C 117.92 1194.5  115.5 1192.08  115.5 1189  C 115.5 1185.92  117.92 1183.5  121 1183.5  Z " stroke-width="1" stroke="#797979" fill="none" />
  <path d="M 121 1192  C 119.32 1192  118 1190.68  118 1189  C 118 1187.32  119.32 1186  121 1186  C 122.68 1186  124 1187.32  124 1189  C 124 1190.68  122.68 1192  121 1192  " fill-rule="nonzero" fill="#797979" stroke="none" />
</svg>