<?xml version="1.0" encoding="utf-8"?>
<svg version="1.1" xmlns:xlink="http://www.w3.org/1999/xlink" width="12px" height="12px" viewBox="38 1183  12 12" xmlns="http://www.w3.org/2000/svg">
  <path d="M 44 1183  C 47.36 1183  50 1185.64  50 1189  C 50 1192.36  47.36 1195  44 1195  C 40.64 1195  38 1192.36  38 1189  C 38 1185.64  40.64 1183  44 1183  Z " fill-rule="nonzero" fill="#ffffff" stroke="none" />
  <path d="M 44 1183.5  C 47.08 1183.5  49.5 1185.92  49.5 1189  C 49.5 1192.08  47.08 1194.5  44 1194.5  C 40.92 1194.5  38.5 1192.08  38.5 1189  C 38.5 1185.92  40.92 1183.5  44 1183.5  Z " stroke-width="1" stroke="#797979" fill="none" />
  <path d="M 44 1192  C 42.32 1192  41 1190.68  41 1189  C 41 1187.32  42.32 1186  44 1186  C 45.68 1186  47 1187.32  47 1189  C 47 1190.68  45.68 1192  44 1192  " fill-rule="nonzero" fill="#797979" stroke="none" />
</svg>