<?xml version="1.0" encoding="utf-8"?>
<svg version="1.1" xmlns:xlink="http://www.w3.org/1999/xlink" width="19px" height="13px" xmlns="http://www.w3.org/2000/svg">
  <g transform="matrix(1 0 0 1 -323 -748 )">
    <path d="M 18.8992745535714 8.44903273809524  C 18.9664248511905 8.51029265873016  19 8.5828373015873  19 8.66666666666667  L 19 10.5238095238095  C 19 10.6076388888889  18.9664248511905 10.680183531746  18.8992745535714 10.741443452381  C 18.8321242559524 10.8027033730159  18.7526041666667 10.8333333333333  18.6607142857143 10.8333333333333  L 4.07142857142857 10.8333333333333  L 4.07142857142857 12.6904761904762  C 4.07142857142857 12.7743055555556  4.03785342261905 12.8468501984127  3.970703125 12.9081101190476  C 3.90355282738095 12.9693700396825  3.82403273809524 13  3.73214285714286 13  C 3.64732142857143 13  3.5625 12.9677579365079  3.47767857142857 12.9032738095238  L 0.0954241071428572 9.80803571428571  C 0.0318080357142857 9.75  0 9.67906746031746  0 9.59523809523809  C 0 9.50496031746032  0.0318080357142857 9.43080357142857  0.0954241071428572 9.37276785714286  L 3.48828125 6.27752976190476  C 3.55189732142857 6.21949404761905  3.63318452380952 6.19047619047619  3.73214285714286 6.19047619047619  C 3.82403273809524 6.19047619047619  3.90355282738095 6.22110615079365  3.970703125 6.28236607142857  C 4.03785342261905 6.34362599206349  4.07142857142857 6.41617063492063  4.07142857142857 6.5  L 4.07142857142857 8.35714285714286  L 18.6607142857143 8.35714285714286  C 18.7526041666667 8.35714285714286  18.8321242559524 8.38777281746032  18.8992745535714 8.44903273809524  Z M 18.9045758928571 3.18229166666667  C 18.9681919642857 3.24032738095238  19 3.31448412698413  19 3.4047619047619  C 19 3.49503968253968  18.9681919642857 3.56919642857143  18.9045758928571 3.62723214285714  L 15.51171875 6.72247023809524  C 15.4481026785714 6.78050595238095  15.3668154761905 6.80952380952381  15.2678571428571 6.80952380952381  C 15.1759672619048 6.80952380952381  15.096447172619 6.77889384920635  15.029296875 6.71763392857143  C 14.962146577381 6.65637400793651  14.9285714285714 6.58382936507936  14.9285714285714 6.5  L 14.9285714285714 4.64285714285714  L 0.339285714285714 4.64285714285714  C 0.247395833333333 4.64285714285714  0.167875744047619 4.61222718253968  0.100725446428571 4.55096726190476  C 0.0335751488095238 4.48970734126984  0 4.4171626984127  0 4.33333333333333  L 0 2.47619047619048  C 0 2.39236111111111  0.0335751488095238 2.31981646825397  0.100725446428571 2.25855654761905  C 0.167875744047619 2.19729662698413  0.247395833333333 2.16666666666667  0.339285714285714 2.16666666666667  L 14.9285714285714 2.16666666666667  L 14.9285714285714 0.30952380952381  C 14.9285714285714 0.219246031746031  14.9603794642857 0.145089285714286  15.0239955357143 0.0870535714285718  C 15.0876116071429 0.0290178571428578  15.1688988095238 0  15.2678571428571 0  C 15.3526785714286 0  15.4375 0.0322420634920634  15.5223214285714 0.0967261904761901  L 18.9045758928571 3.18229166666667  Z " fill-rule="nonzero" fill="#333333" stroke="none" transform="matrix(1 0 0 1 323 748 )" />
  </g>
</svg>