<?xml version="1.0" encoding="utf-8"?>
<svg version="1.1" xmlns:xlink="http://www.w3.org/1999/xlink" width="12px" height="12px" viewBox="38 1401  12 12" xmlns="http://www.w3.org/2000/svg">
  <path d="M 44 1401  C 47.36 1401  50 1403.64  50 1407  C 50 1410.36  47.36 1413  44 1413  C 40.64 1413  38 1410.36  38 1407  C 38 1403.64  40.64 1401  44 1401  Z " fill-rule="nonzero" fill="#f0f0f0" stroke="none" />
  <path d="M 44 1401.5  C 47.08 1401.5  49.5 1403.92  49.5 1407  C 49.5 1410.08  47.08 1412.5  44 1412.5  C 40.92 1412.5  38.5 1410.08  38.5 1407  C 38.5 1403.92  40.92 1401.5  44 1401.5  Z " stroke-width="1" stroke="#797979" fill="none" />
  <path d="M 44 1410  C 42.32 1410  41 1408.68  41 1407  C 41 1405.32  42.32 1404  44 1404  C 45.68 1404  47 1405.32  47 1407  C 47 1408.68  45.68 1410  44 1410  " fill-rule="nonzero" fill="#797979" stroke="none" />
</svg>