<?xml version="1.0" encoding="utf-8"?>
<svg version="1.1" xmlns:xlink="http://www.w3.org/1999/xlink" width="12px" height="12px" viewBox="215 1401  12 12" xmlns="http://www.w3.org/2000/svg">
  <path d="M 221 1401  C 224.36 1401  227 1403.64  227 1407  C 227 1410.36  224.36 1413  221 1413  C 217.64 1413  215 1410.36  215 1407  C 215 1403.64  217.64 1401  221 1401  Z " fill-rule="nonzero" fill="#ffffff" stroke="none" />
  <path d="M 221 1401.5  C 224.08 1401.5  226.5 1403.92  226.5 1407  C 226.5 1410.08  224.08 1412.5  221 1412.5  C 217.92 1412.5  215.5 1410.08  215.5 1407  C 215.5 1403.92  217.92 1401.5  221 1401.5  Z " stroke-width="1" stroke="#797979" fill="none" />
  <path d="M 221 1410  C 219.32 1410  218 1408.68  218 1407  C 218 1405.32  219.32 1404  221 1404  C 222.68 1404  224 1405.32  224 1407  C 224 1408.68  222.68 1410  221 1410  " fill-rule="nonzero" fill="#797979" stroke="none" />
</svg>