<?xml version="1.0" encoding="utf-8"?>
<svg version="1.1" xmlns:xlink="http://www.w3.org/1999/xlink" width="12px" height="12px" viewBox="115 1401  12 12" xmlns="http://www.w3.org/2000/svg">
  <path d="M 121 1401  C 124.36 1401  127 1403.64  127 1407  C 127 1410.36  124.36 1413  121 1413  C 117.64 1413  115 1410.36  115 1407  C 115 1403.64  117.64 1401  121 1401  Z " fill-rule="nonzero" fill="#ffffff" stroke="none" />
  <path d="M 121 1401.5  C 124.08 1401.5  126.5 1403.92  126.5 1407  C 126.5 1410.08  124.08 1412.5  121 1412.5  C 117.92 1412.5  115.5 1410.08  115.5 1407  C 115.5 1403.92  117.92 1401.5  121 1401.5  Z " stroke-width="1" stroke="#797979" fill="none" />
  <path d="M 121 1410  C 119.32 1410  118 1408.68  118 1407  C 118 1405.32  119.32 1404  121 1404  C 122.68 1404  124 1405.32  124 1407  C 124 1408.68  122.68 1410  121 1410  " fill-rule="nonzero" fill="#797979" stroke="none" />
</svg>