<?xml version="1.0" encoding="utf-8"?>
<svg version="1.1" xmlns:xlink="http://www.w3.org/1999/xlink" width="10px" height="10px" xmlns="http://www.w3.org/2000/svg">
  <g transform="matrix(1 0 0 1 -182 -161 )">
    <path d="M 187 161  C 189.8 161  192 163.2  192 166  C 192 168.8  189.8 171  187 171  C 184.2 171  182 168.8  182 166  C 182 163.2  184.2 161  187 161  Z " fill-rule="nonzero" fill="#ffffff" stroke="none" />
    <path d="M 187 161.5  C 189.52 161.5  191.5 163.48  191.5 166  C 191.5 168.52  189.52 170.5  187 170.5  C 184.48 170.5  182.5 168.52  182.5 166  C 182.5 163.48  184.48 161.5  187 161.5  Z " stroke-width="1" stroke="#797979" fill="none" />
  </g>
</svg>