<?xml version="1.0" encoding="utf-8"?>
<svg version="1.1" xmlns:xlink="http://www.w3.org/1999/xlink" width="14px" height="12px" xmlns="http://www.w3.org/2000/svg">
  <g transform="matrix(1 0 0 1 -283 -973 )">
    <path d="M 13.92578125 7.79910714285714  C 13.9752604166667 7.85565476190476  14 7.92261904761905  14 8  L 14 9.71428571428572  C 14 9.79166666666667  13.9752604166667 9.85863095238095  13.92578125 9.91517857142857  C 13.8763020833333 9.97172619047619  13.8177083333333 10  13.75 10  L 3 10  L 3 11.7142857142857  C 3 11.7916666666667  2.97526041666667 11.858630952381  2.92578125 11.9151785714286  C 2.87630208333333 11.9717261904762  2.81770833333333 12  2.75 12  C 2.6875 12  2.625 11.9702380952381  2.5625 11.9107142857143  L 0.0703125 9.05357142857143  C 0.0234375 9  0 8.93452380952381  0 8.85714285714286  C 0 8.77380952380952  0.0234375 8.70535714285714  0.0703125 8.65178571428571  L 2.5703125 5.79464285714286  C 2.6171875 5.74107142857143  2.67708333333333 5.71428571428571  2.75 5.71428571428571  C 2.81770833333333 5.71428571428571  2.87630208333333 5.74255952380952  2.92578125 5.79910714285714  C 2.97526041666667 5.85565476190476  3 5.92261904761905  3 6  L 3 7.71428571428571  L 13.75 7.71428571428571  C 13.8177083333333 7.71428571428571  13.8763020833333 7.74255952380952  13.92578125 7.79910714285714  Z M 13.9296875 2.9375  C 13.9765625 2.99107142857143  14 3.05952380952381  14 3.14285714285714  C 14 3.22619047619048  13.9765625 3.29464285714286  13.9296875 3.34821428571429  L 11.4296875 6.20535714285714  C 11.3828125 6.25892857142857  11.3229166666667 6.28571428571429  11.25 6.28571428571429  C 11.1822916666667 6.28571428571429  11.1236979166667 6.25744047619048  11.07421875 6.20089285714286  C 11.0247395833333 6.14434523809524  11 6.07738095238095  11 6  L 11 4.28571428571428  L 0.25 4.28571428571428  C 0.182291666666667 4.28571428571428  0.123697916666667 4.25744047619048  0.07421875 4.20089285714286  C 0.0247395833333333 4.14434523809524  0 4.07738095238095  0 4  L 0 2.28571428571429  C 0 2.20833333333333  0.0247395833333333 2.14136904761905  0.07421875 2.08482142857143  C 0.123697916666667 2.02827380952381  0.182291666666667 2  0.25 2  L 11 2  L 11 0.285714285714286  C 11 0.202380952380952  11.0234375 0.133928571428572  11.0703125 0.0803571428571432  C 11.1171875 0.0267857142857149  11.1770833333333 0  11.25 0  C 11.3125 0  11.375 0.0297619047619047  11.4375 0.089285714285714  L 13.9296875 2.9375  Z " fill-rule="nonzero" fill="#333333" stroke="none" transform="matrix(1 0 0 1 283 973 )" />
  </g>
</svg>