<?xml version="1.0" encoding="utf-8"?>
<svg version="1.1" xmlns:xlink="http://www.w3.org/1999/xlink" width="12px" height="12px" viewBox="339 753  12 12" xmlns="http://www.w3.org/2000/svg">
  <path d="M 345 753  C 348.36 753  351 755.64  351 759  C 351 762.36  348.36 765  345 765  C 341.64 765  339 762.36  339 759  C 339 755.64  341.64 753  345 753  Z " fill-rule="nonzero" fill="#ffffff" stroke="none" />
  <path d="M 345 753.5  C 348.08 753.5  350.5 755.92  350.5 759  C 350.5 762.08  348.08 764.5  345 764.5  C 341.92 764.5  339.5 762.08  339.5 759  C 339.5 755.92  341.92 753.5  345 753.5  Z " stroke-width="1" stroke="#797979" fill="none" />
  <path d="M 345 762  C 343.32 762  342 760.68  342 759  C 342 757.32  343.32 756  345 756  C 346.68 756  348 757.32  348 759  C 348 760.68  346.68 762  345 762  " fill-rule="nonzero" fill="#797979" stroke="none" />
</svg>