<?xml version="1.0" encoding="utf-8"?>
<svg version="1.1" xmlns:xlink="http://www.w3.org/1999/xlink" width="12px" height="12px" viewBox="339 701  12 12" xmlns="http://www.w3.org/2000/svg">
  <path d="M 345 701  C 348.36 701  351 703.64  351 707  C 351 710.36  348.36 713  345 713  C 341.64 713  339 710.36  339 707  C 339 703.64  341.64 701  345 701  Z " fill-rule="nonzero" fill="#f0f0f0" stroke="none" />
  <path d="M 345 701.5  C 348.08 701.5  350.5 703.92  350.5 707  C 350.5 710.08  348.08 712.5  345 712.5  C 341.92 712.5  339.5 710.08  339.5 707  C 339.5 703.92  341.92 701.5  345 701.5  Z " stroke-width="1" stroke="#797979" fill="none" />
  <path d="M 345 710  C 343.32 710  342 708.68  342 707  C 342 705.32  343.32 704  345 704  C 346.68 704  348 705.32  348 707  C 348 708.68  346.68 710  345 710  " fill-rule="nonzero" fill="#797979" stroke="none" />
</svg>