<?xml version="1.0" encoding="utf-8"?>
<svg version="1.1" xmlns:xlink="http://www.w3.org/1999/xlink" width="335px" height="160px" xmlns="http://www.w3.org/2000/svg">
  <g transform="matrix(1 0 0 1 -20 -143 )">
    <path d="M 20.5 282.551724137931  C 20.5 282.551724137931  20.5 148  20.5 148  C 20.5 145.514718625761  22.5147186257614 143.5  25 143.5  C 25 143.5  350 143.5  350 143.5  C 352.485281374239 143.5  354.5 145.514718625761  354.5 148  C 354.5 148  354.5 282.551724137931  354.5 282.551724137931  C 354.5 285.03700551217  352.485281374239 287.051724137931  350 287.051724137931  C 350 287.051724137931  209.829381924765 287.051724137931  209.829381924765 287.051724137931  C 209.829381924765 287.051724137931  189.99265838498 302.37388301004  189.99265838498 302.37388301004  C 189.99265838498 302.37388301004  169.164098668207 287.051724137931  169.164098668207 287.051724137931  C 169.164098668207 287.051724137931  25 287.051724137931  25 287.051724137931  C 22.5147186257614 287.051724137931  20.5 285.03700551217  20.5 282.551724137931  Z " fill-rule="nonzero" fill="#ffffff" stroke="none" />
    <path d="M 20 282.551724137931  C 20 282.551724137931  20 148  20 148  C 20 145.238576250846  22.238576250846 143  25 143  C 25 143  350 143  350 143  C 352.761423749154 143  355 145.238576250846  355 148  C 355 148  355 282.551724137931  355 282.551724137931  C 355 285.313147887085  352.761423749154 287.551724137931  350 287.551724137931  C 350 287.551724137931  210 287.551724137931  210 287.551724137931  C 210 287.551724137931  190 303  190 303  C 190 303  169 287.551724137931  169 287.551724137931  C 169 287.551724137931  25 287.551724137931  25 287.551724137931  C 22.238576250846 287.551724137931  20 285.313147887085  20 282.551724137931  Z M 21 282.551724137931  C 21 284.760863137254  22.7908610006768 286.551724137931  25 286.551724137931  C 25 286.551724137931  169.328197336413 286.551724137931  169.328197336413 286.551724137931  C 169.328197336413 286.551724137931  189.98531676996 301.747766020081  189.98531676996 301.747766020081  C 189.98531676996 301.747766020081  209.658763849529 286.551724137931  209.658763849529 286.551724137931  C 209.658763849529 286.551724137931  350 286.551724137931  350 286.551724137931  C 352.209138999323 286.551724137931  354 284.760863137254  354 282.551724137931  C 354 282.551724137931  354 148  354 148  C 354 145.790861000677  352.209138999323 144  350 144  C 350 144  25 144  25 144  C 22.7908610006768 144  21 145.790861000677  21 148  C 21 148  21 282.551724137931  21 282.551724137931  Z " fill-rule="nonzero" fill="#e4e4e4" stroke="none" />
  </g>
</svg>