<?xml version="1.0" encoding="utf-8"?>
<svg version="1.1" xmlns:xlink="http://www.w3.org/1999/xlink" width="12px" height="12px" viewBox="339 109  12 12" xmlns="http://www.w3.org/2000/svg">
  <path d="M 345 109  C 348.36 109  351 111.64  351 115  C 351 118.36  348.36 121  345 121  C 341.64 121  339 118.36  339 115  C 339 111.64  341.64 109  345 109  Z " fill-rule="nonzero" fill="#ffffff" stroke="none" />
  <path d="M 345 109.5  C 348.08 109.5  350.5 111.92  350.5 115  C 350.5 118.08  348.08 120.5  345 120.5  C 341.92 120.5  339.5 118.08  339.5 115  C 339.5 111.92  341.92 109.5  345 109.5  Z " stroke-width="1" stroke="#797979" fill="none" />
  <path d="M 345 118  C 343.32 118  342 116.68  342 115  C 342 113.32  343.32 112  345 112  C 346.68 112  348 113.32  348 115  C 348 116.68  346.68 118  345 118  " fill-rule="nonzero" fill="#797979" stroke="none" />
</svg>