<?xml version="1.0" encoding="utf-8"?>
<svg version="1.1" xmlns:xlink="http://www.w3.org/1999/xlink" width="12px" height="12px" viewBox="339 751  12 12" xmlns="http://www.w3.org/2000/svg">
  <path d="M 345 751  C 348.36 751  351 753.64  351 757  C 351 760.36  348.36 763  345 763  C 341.64 763  339 760.36  339 757  C 339 753.64  341.64 751  345 751  Z " fill-rule="nonzero" fill="#f0f0f0" stroke="none" />
  <path d="M 345 751.5  C 348.08 751.5  350.5 753.92  350.5 757  C 350.5 760.08  348.08 762.5  345 762.5  C 341.92 762.5  339.5 760.08  339.5 757  C 339.5 753.92  341.92 751.5  345 751.5  Z " stroke-width="1" stroke="#797979" fill="none" />
  <path d="M 345 760  C 343.32 760  342 758.68  342 757  C 342 755.32  343.32 754  345 754  C 346.68 754  348 755.32  348 757  C 348 758.68  346.68 760  345 760  " fill-rule="nonzero" fill="#797979" stroke="none" />
</svg>