<?xml version="1.0" encoding="utf-8"?>
<svg version="1.1" xmlns:xlink="http://www.w3.org/1999/xlink" width="12px" height="12px" viewBox="339 504  12 12" xmlns="http://www.w3.org/2000/svg">
  <path d="M 345 504  C 348.36 504  351 506.64  351 510  C 351 513.36  348.36 516  345 516  C 341.64 516  339 513.36  339 510  C 339 506.64  341.64 504  345 504  Z " fill-rule="nonzero" fill="#f0f0f0" stroke="none" />
  <path d="M 345 504.5  C 348.08 504.5  350.5 506.92  350.5 510  C 350.5 513.08  348.08 515.5  345 515.5  C 341.92 515.5  339.5 513.08  339.5 510  C 339.5 506.92  341.92 504.5  345 504.5  Z " stroke-width="1" stroke="#797979" fill="none" />
  <path d="M 345 513  C 343.32 513  342 511.68  342 510  C 342 508.32  343.32 507  345 507  C 346.68 507  348 508.32  348 510  C 348 511.68  346.68 513  345 513  " fill-rule="nonzero" fill="#797979" stroke="none" />
</svg>