<?xml version="1.0" encoding="utf-8"?>
<svg version="1.1" xmlns:xlink="http://www.w3.org/1999/xlink" width="12px" height="12px" viewBox="339 252  12 12" xmlns="http://www.w3.org/2000/svg">
  <path d="M 345 252  C 348.36 252  351 254.64  351 258  C 351 261.36  348.36 264  345 264  C 341.64 264  339 261.36  339 258  C 339 254.64  341.64 252  345 252  Z " fill-rule="nonzero" fill="#ffffff" stroke="none" />
  <path d="M 345 252.5  C 348.08 252.5  350.5 254.92  350.5 258  C 350.5 261.08  348.08 263.5  345 263.5  C 341.92 263.5  339.5 261.08  339.5 258  C 339.5 254.92  341.92 252.5  345 252.5  Z " stroke-width="1" stroke="#797979" fill="none" />
  <path d="M 345 261  C 343.32 261  342 259.68  342 258  C 342 256.32  343.32 255  345 255  C 346.68 255  348 256.32  348 258  C 348 259.68  346.68 261  345 261  " fill-rule="nonzero" fill="#797979" stroke="none" />
</svg>