<?xml version="1.0" encoding="utf-8"?>
<svg version="1.1" xmlns:xlink="http://www.w3.org/1999/xlink" width="12px" height="12px" viewBox="339 161  12 12" xmlns="http://www.w3.org/2000/svg">
  <path d="M 345 161  C 348.36 161  351 163.64  351 167  C 351 170.36  348.36 173  345 173  C 341.64 173  339 170.36  339 167  C 339 163.64  341.64 161  345 161  Z " fill-rule="nonzero" fill="#f0f0f0" stroke="none" />
  <path d="M 345 161.5  C 348.08 161.5  350.5 163.92  350.5 167  C 350.5 170.08  348.08 172.5  345 172.5  C 341.92 172.5  339.5 170.08  339.5 167  C 339.5 163.92  341.92 161.5  345 161.5  Z " stroke-width="1" stroke="#797979" fill="none" />
  <path d="M 345 170  C 343.32 170  342 168.68  342 167  C 342 165.32  343.32 164  345 164  C 346.68 164  348 165.32  348 167  C 348 168.68  346.68 170  345 170  " fill-rule="nonzero" fill="#797979" stroke="none" />
</svg>