<?xml version="1.0" encoding="utf-8"?>
<svg version="1.1" xmlns:xlink="http://www.w3.org/1999/xlink" width="12px" height="12px" viewBox="339 452  12 12" xmlns="http://www.w3.org/2000/svg">
  <path d="M 345 452  C 348.36 452  351 454.64  351 458  C 351 461.36  348.36 464  345 464  C 341.64 464  339 461.36  339 458  C 339 454.64  341.64 452  345 452  Z " fill-rule="nonzero" fill="#ffffff" stroke="none" />
  <path d="M 345 452.5  C 348.08 452.5  350.5 454.92  350.5 458  C 350.5 461.08  348.08 463.5  345 463.5  C 341.92 463.5  339.5 461.08  339.5 458  C 339.5 454.92  341.92 452.5  345 452.5  Z " stroke-width="1" stroke="#797979" fill="none" />
  <path d="M 345 461  C 343.32 461  342 459.68  342 458  C 342 456.32  343.32 455  345 455  C 346.68 455  348 456.32  348 458  C 348 459.68  346.68 461  345 461  " fill-rule="nonzero" fill="#797979" stroke="none" />
</svg>