<?xml version="1.0" encoding="utf-8"?>
<svg version="1.1" xmlns:xlink="http://www.w3.org/1999/xlink" width="12px" height="12px" viewBox="339 556  12 12" xmlns="http://www.w3.org/2000/svg">
  <path d="M 345 556  C 348.36 556  351 558.64  351 562  C 351 565.36  348.36 568  345 568  C 341.64 568  339 565.36  339 562  C 339 558.64  341.64 556  345 556  Z " fill-rule="nonzero" fill="#f0f0f0" stroke="none" />
  <path d="M 345 556.5  C 348.08 556.5  350.5 558.92  350.5 562  C 350.5 565.08  348.08 567.5  345 567.5  C 341.92 567.5  339.5 565.08  339.5 562  C 339.5 558.92  341.92 556.5  345 556.5  Z " stroke-width="1" stroke="#797979" fill="none" />
  <path d="M 345 565  C 343.32 565  342 563.68  342 562  C 342 560.32  343.32 559  345 559  C 346.68 559  348 560.32  348 562  C 348 563.68  346.68 565  345 565  " fill-rule="nonzero" fill="#797979" stroke="none" />
</svg>