<?xml version="1.0" standalone="no"?><!DOCTYPE svg PUBLIC "-//W3C//DTD SVG 1.1//EN" "http://www.w3.org/Graphics/SVG/1.1/DTD/svg11.dtd"><svg t="1541849908767" class="icon" style="" viewBox="0 0 1024 1024" version="1.1" xmlns="http://www.w3.org/2000/svg" p-id="2027" xmlns:xlink="http://www.w3.org/1999/xlink" width="48" height="48"><defs><style type="text/css"></style></defs><path d="M349.417111 467.836151c-12.538571-12.830213-33.172517-13.094226-45.922912-0.529049-12.856819 12.565177-13.120832 33.145911-0.529049 45.976124l134.806265 137.928373c6.031367 6.189979 14.285355 9.708106 22.961968 9.787924 0.053212 0 0.158612 0 0.265036 0 8.571213 0 16.770965-3.38612 22.855544-9.390881l257.07396-253.92627c12.750395-12.618389 12.909008-33.199123 0.265036-45.976124-12.538571-12.697183-33.119305-12.909008-45.976124-0.264013L461.421045 582.405513 349.417111 467.836151z" p-id="2028" fill="#ffffff"></path><path d="M876.051413 188.619892 522.580986 66.801429c-6.877641-2.328022-14.285355-2.328022-21.162995 0l-353.470427 121.818463c-13.120832 4.524037-21.903869 16.877389-21.903869 30.739095l0 375.98214c9.893324 220.621746 359.555006 355.825055 374.421598 361.485985 3.703345 1.401929 7.618515 2.116197 11.533684 2.116197s7.830339-0.714268 11.533684-2.116197c14.866592-5.66093 364.475062-140.864238 374.421598-362.941126L897.954259 219.358987C897.955282 205.497281 889.173269 193.142905 876.051413 188.619892zM832.985572 592.431867c-7.142677 158.826332-263.582187 274.904047-321.144184 299.002908-97.348142-39.574321-314.478368-156.921959-320.826959-297.547767L191.014428 242.531755l320.985572-110.602004L832.985572 242.531755 832.985572 592.431867z" p-id="2029" fill="#ffffff"></path></svg>